<?xml version="1.0" encoding="UTF-8" standalone="no"?><!-- Generator: Gravit.io --><svg xmlns="http://www.w3.org/2000/svg" xmlns:xlink="http://www.w3.org/1999/xlink" style="isolation:isolate" viewBox="0 0 282 174" width="282pt" height="174pt"><defs><clipPath id="_clipPath_M7XIK0ZCFZpmEPSgrT6XUEQCfOF3uD99">
<rect width="282" height="174"/>
</clipPath></defs><g clip-path="url(#_clipPath_M7XIK0ZCFZpmEPSgrT6XUEQCfOF3uD99)"><path d="M 15.24 0 L 264.59 0 C 266.45 0 267.96 1.51 267.96 3.37 L 267.96 134.79 L 11.87 134.79 L 11.87 3.37 C 11.87 1.51 13.38 0 15.24 0 Z" style="stroke:none;fill:#000000;stroke-miterlimit:10;"/><g><path id="toolips" d="M 216.67 134.79 L 267.87 134.79 L 267.87 158.099 C 267.87 160.39 266.009 162.25 263.718 162.25 L 216.67 162.25 L 216.67 134.79 Z" style="stroke:none;fill:#79B7CE;stroke-miterlimit:10;"/><rect id="algia" x="114.27" y="134.786" width="51.2" height="27.467" transform="matrix(1,0,0,1,0,0)" fill="rgb(249,200,0)"/>
<rect id="olive" x="165.47" y="134.786" width="51.2" height="27.467" transform="matrix(1,0,0,1,0,0)" fill="rgb(254,134,199)"/><rect id="gattino" x="63.07" y="134.786" width="51.2" height="27.467" transform="matrix(1,0,0,1,0,0)" fill="rgb(193,120,181)"/><path id="tumble" d="M 11.87 134.79 L 63.07 134.79 L 63.07 162.25 L 16.022 162.25 C 13.731 162.25 11.87 160.39 11.87 158.099 L 11.87 134.79 Z" style="stroke:none;fill:#E24E40;stroke-miterlimit:10;"/></g><g clip-path="url(#_clipPath_iIbQv80Bgm77V4CA5gnfAHiEG7PUDLvA)"><text transform="matrix(1,0,0,1,21.911,118.985)" style="font-family:'Open Sans';font-weight:800;font-size:103px;font-style:normal;fill:#ffffff;stroke:none;">chifi</text></g><defs><clipPath id="_clipPath_iIbQv80Bgm77V4CA5gnfAHiEG7PUDLvA">
<rect x="0" y="0" width="267.835" height="117" transform="matrix(1,0,0,1,6,8.893)"/></clipPath></defs></g></svg>